<?xml version="1.0" encoding="UTF-8" standalone="no"?> <!-- Created with Vectornator for iOS (http://vectornator.io/) --><!DOCTYPE svg PUBLIC "-//W3C//DTD SVG 1.1//EN" "http://www.w3.org/Graphics/SVG/1.1/DTD/svg11.dtd">
<svg height="100%" style="fill-rule:nonzero;clip-rule:evenodd;stroke-linecap:round;stroke-linejoin:round;" xmlns:xlink="http://www.w3.org/1999/xlink" xmlns="http://www.w3.org/2000/svg" xml:space="preserve" width="100%" xmlns:vectornator="http://vectornator.io" version="1.1" viewBox="0 0 30 30">
<metadata>
<vectornator:setting key="DimensionsVisible" value="1"/>
<vectornator:setting key="PencilOnly" value="1"/>
<vectornator:setting key="SnapToPoints" value="1"/>
<vectornator:setting key="OutlineMode" value="0"/>
<vectornator:setting key="CMYKEnabledKey" value="0"/>
<vectornator:setting key="RulersVisible" value="0"/>
<vectornator:setting key="SnapToEdges" value="1"/>
<vectornator:setting key="GuidesVisible" value="0"/>
<vectornator:setting key="DisplayWhiteBackground" value="0"/>
<vectornator:setting key="doHistoryDisabled" value="0"/>
<vectornator:setting key="SnapToGuides" value="1"/>
<vectornator:setting key="TimeLapseWatermarkDisabled" value="0"/>
<vectornator:setting key="Units" value="Points"/>
<vectornator:setting key="DynamicGuides" value="1"/>
<vectornator:setting key="IsolateActiveLayer" value="0"/>
<vectornator:setting key="SnapToGrid" value="0"/>
</metadata>
<defs/>
<g id="backdrop" vectornator:layerName="backdrop">
<path stroke="#000000" stroke-width="0" d="M3.75+0L26.25+0C28.3211+0+30+1.67893+30+3.75L30+26.25C30+28.3211+28.3211+30+26.25+30L3.75+30C1.67893+30+0+28.3211+0+26.25L0+3.75C0+1.67893+1.67893+0+3.75+0Z" fill="#ff6666" stroke-linecap="butt" opacity="1" stroke-linejoin="round"/>
</g>
<g id="Layer 1" vectornator:layerName="Layer 1">
<path d="M12.0865+9.83166L20.1111+9.83166L20.1111+15.6668L12.0865+15.6668L12.0865+9.83166Z" opacity="1" fill="#d7d7d7"/>
</g>
<g id="corners" vectornator:layerName="corners">
<path d="M16.8635+21.7264L23.3587+17.9764C23.9565+17.6312+23.9565+17.0716+23.3587+16.7264L16.8635+12.9764C16.2656+12.6312+15.2963+12.6312+14.6984+12.9764L8.20321+16.7264C7.60534+17.0716+7.60534+17.6312+8.20321+17.9764L14.6984+21.7264C15.2963+22.0716+16.2656+22.0716+16.8635+21.7264Z" opacity="1" fill="#d7d7d7"/>
<path d="M7.12068+8.6014L7.12068+16.1014C7.12068+16.7918+7.60534+17.0716+8.20321+16.7264L14.6984+12.9764C15.2963+12.6312+15.7809+11.7918+15.7809+11.1014L15.7809+3.6014C15.7809+2.91104+15.2963+2.63122+14.6984+2.9764L8.20321+6.7264C7.60534+7.07158+7.12068+7.91104+7.12068+8.6014Z" opacity="1" fill="#d7d7d7"/>
<path d="M24.4412+8.6014L24.4412+16.1014C24.4412+16.7918+23.9565+17.0716+23.3587+16.7264L16.8635+12.9764C16.2656+12.6312+15.7809+11.7918+15.7809+11.1014L15.7809+3.6014C15.7809+2.91104+16.2656+2.63122+16.8635+2.9764L23.3587+6.7264C23.9565+7.07158+24.4412+7.91104+24.4412+8.6014Z" opacity="1" fill="#d7d7d7"/>
</g>
<g id="other corners" vectornator:layerName="other corners">
<path stroke="#e5e5e5" stroke-width="0" d="M8.20321+17.9764L14.6984+21.7264C15.2963+22.0716+15.7809+21.7918+15.7809+21.1014L15.7809+13.6014C15.7809+12.911+15.2963+12.0716+14.6984+11.7264L8.20321+7.9764C7.60534+7.63122+7.12068+7.91104+7.12068+8.6014L7.12068+16.1014C7.12068+16.7918+7.60534+17.6312+8.20321+17.9764Z" fill="#d7d7d7" stroke-linecap="butt" opacity="1" stroke-linejoin="round"/>
<path stroke="#e5e5e5" stroke-width="0" d="M14.6984+2.9764L8.20321+6.7264C7.60534+7.07158+7.60534+7.63122+8.20321+7.9764L14.6984+11.7264C15.2963+12.0716+16.2656+12.0716+16.8635+11.7264L23.3587+7.9764C23.9565+7.63122+23.9565+7.07158+23.3587+6.7264L16.8635+2.9764C16.2656+2.63122+15.2963+2.63122+14.6984+2.9764Z" fill="#d7d7d7" stroke-linecap="butt" opacity="1" stroke-linejoin="round"/>
<path stroke="#e5e5e5" stroke-width="0" d="M23.3587+17.9764L16.8635+21.7264C16.2656+22.0716+15.7809+21.7918+15.7809+21.1014L15.7809+13.6014C15.7809+12.911+16.2656+12.0716+16.8635+11.7264L23.3587+7.9764C23.9565+7.63122+24.4412+7.91104+24.4412+8.6014L24.4412+16.1014C24.4412+16.7918+23.9565+17.6312+23.3587+17.9764Z" fill="#d7d7d7" stroke-linecap="butt" opacity="1" stroke-linejoin="round"/>
</g>
<g id="screen surrounding" vectornator:layerName="screen surrounding">
<path d="M17.787+12.634L22.4351+9.93779C22.861+9.69078+23.2062+9.88962+23.2062+10.3819L23.2062+15.7471C23.2062+16.2394+22.8606+16.838+22.4342+17.0842L17.7879+19.7667C17.3615+20.0129+17.0159+19.8133+17.0159+19.321L17.0159+13.9727C17.0159+13.4804+17.3611+12.881+17.787+12.634Z" opacity="1" fill="#a9a9a9"/>
</g>
<g id="screen" vectornator:layerName="screen">
<path d="M17.8705+12.7952L21.8198+10.5044C22.1816+10.2945+22.4749+10.4635+22.4749+10.8818L22.4749+15.4402C22.4749+15.8585+22.1812+16.3671+21.819+16.5762L17.8713+18.8554C17.5091+19.0646+17.2154+18.895+17.2154+18.4767L17.2154+13.9326C17.2154+13.5143+17.5087+13.0051+17.8705+12.7952Z" opacity="1" fill="#00fcff"/>
</g>
<g id="keyboard" vectornator:layerName="keyboard">
<path d="M20.6536+24.5411L28.2288+20.1617C28.5276+19.9889+28.5274+19.7091+28.2284+19.5367L24.9797+17.6636C24.6807+17.4912+24.196+17.4915+23.8972+17.6642L16.322+22.0436C16.0232+22.2164+16.0233+22.4962+16.3224+22.6686L19.5711+24.5417C19.8701+24.7141+20.3548+24.7139+20.6536+24.5411Z" opacity="1" fill="#d7d7d7"/>
</g>
<g id="keyboard top" vectornator:layerName="keyboard top">
<path d="M20.6536+23.8809L28.2288+19.5015C28.5276+19.3287+28.5274+19.0489+28.2284+18.8765L24.9797+17.0034C24.6807+16.831+24.196+16.8312+23.8972+17.004L16.322+21.3834C16.0232+21.5562+16.0233+21.836+16.3224+22.0084L19.5711+23.8815C19.8701+24.0539+20.3548+24.0536+20.6536+23.8809Z" opacity="1" fill="#a9a9a9"/>
</g>
<g id="flask bottom" vectornator:layerName="flask bottom">
<path d="M12.8307+22.3714L12.8307+22.3714C12.8307+23.9736+10.2918+25.2725+7.15987+25.2725L7.15987+25.2725C4.02797+25.2725+1.48907+23.9736+1.48907+22.3714" opacity="0.7" fill="#ffffff"/>
</g>
<g id="flask" vectornator:layerName="flask">
<path stroke="#000000" stroke-width="0" d="M4.93449+14.3988L9.37211+14.3988L12.8307+22.3714L1.45723+22.3714L4.93449+14.3988Z" fill="#ffffff" stroke-linecap="round" opacity="0.7" stroke-linejoin="round"/>
<path stroke="#000000" stroke-width="0" d="M4.94762+10.3714L9.37211+10.3714L9.37211+14.3988L4.94762+14.3988L4.94762+10.3714Z" fill="#ffffff" stroke-linecap="round" opacity="0.7" stroke-linejoin="round"/>
<path stroke="#000000" stroke-width="0" d="M4.94762+10.3714L4.94762+10.3714C4.94762+9.74631+5.93808+9.2396+7.15987+9.2396L7.15987+9.2396C8.38166+9.2396+9.37211+9.74631+9.37211+10.3714" fill="#ffffff" stroke-linecap="butt" opacity="0.7" stroke-linejoin="round"/>
</g>
<g id="liquid" vectornator:layerName="liquid">
<path stroke="#000000" stroke-width="0" d="M5.1962+15.1434L9.13956+15.1434L12.2129+22.228L2.10623+22.228L5.1962+15.1434Z" fill="#4fff9c" stroke-linecap="butt" opacity="1" stroke-linejoin="round"/>
<path stroke="#000000" stroke-width="0" d="M7.17371+14.1134L7.17371+14.1134C8.25942+14.1134+9.13956+14.5636+9.13956+15.1191L9.13956+15.1191C9.13956+15.6745+8.25942+16.1248+7.17371+16.1248L7.17371+16.1248C6.08801+16.1248+5.20787+15.6745+5.20787+15.1191L5.20787+15.1191C5.20787+14.5636+6.08801+14.1134+7.17371+14.1134Z" fill="#4fff9c" stroke-linecap="butt" opacity="1" stroke-linejoin="round"/>
<path stroke="#000000" stroke-width="0" d="M7.17371+19.65L7.17371+19.65C9.95679+19.65+12.2129+20.8042+12.2129+22.228L12.2129+22.228C12.2129+23.6518+9.95679+24.806+7.17371+24.806L7.17371+24.806C4.39064+24.806+2.13452+23.6518+2.13452+22.228L2.13452+22.228C2.13452+20.8042+4.39064+19.65+7.17371+19.65Z" fill="#4fff9c" stroke-linecap="butt" opacity="1" stroke-linejoin="round"/>
</g>
</svg>

